<?xml version="1.0" encoding="utf-8"?>
<!-- Generator: Adobe Illustrator 19.2.1, SVG Export Plug-In . SVG Version: 6.00 Build 0)  -->
<svg version="1.1" id="layer" xmlns="http://www.w3.org/2000/svg" xmlns:xlink="http://www.w3.org/1999/xlink" x="0px" y="0px"
	 viewBox="0 0 652 652" style="enable-background:new 0 0 652 652;" xml:space="preserve">
<style type="text/css">
	.st0{fill:#7FACA6;}
	.st1{fill:#00594D;}
	.st2{fill:#A41F35;}
</style>
<path class="st0" d="M373.5,346.4c0,0,33-52.2,116.1-41.8s113.6-13.8,113.6-13.8s-56.8,79.3-122.3,58
	C414.9,327.6,373.5,346.4,373.5,346.4 M320.9,531.3c0,0,33-52.2,116.1-41.8s113.6-13.8,113.6-13.8s-56.8,79.3-122.3,58
	C362.3,512.5,320.9,531.3,320.9,531.3 M427,171.8c0,0,33-52.2,116.1-41.8s113.6-13.8,113.6-13.8s-56.8,78.9-122.3,58
	C468.3,153.1,427,171.8,427,171.8"/>
<path class="st1" d="M265,299.2c0,0-5.8,5.8-36.7,5.8H146c-13.4,0-15,5.4-15,5.4c0.4-3.3,2.5-11.7,2.9-15
	c16.3-88.9,29.2-159.1,30.1-161.6c5-19.2,22.1-23.4,22.1-23.4h-79.3c0,0-16.3,0.4-22.1,23.4C83,140.5,27,445.3,15.3,512.9
	c-2.9,15.9-19.6,21.7-19.6,21.7h78.5c0,0,15-1.3,19.2-21.3c5.4-26.7,15.9-86.4,29.2-158.2c1.7-10.9,12.9-9.6,12.9-9.6h78.9
	c0,0,25.9,0.4,38-12.9C264.2,319.6,265,299.2,265,299.2"/>
<path class="st2" d="M282.5,310C266.7,613.6,45.8,567.6,45.8,567.6v2.1c34.2,7.1,292.3,47.6,308.1-228
	C369.8,38.7,591.1,84.2,591.1,84.2v-2.1C556.4,75,298.8,34.5,282.5,310"/>
</svg>
